#Comment line ignore any data following # character 
#Hierarchical Translation and Rotation (.htr) file 
[Header]	
#Header keywords are followed by a single value 
FileType HTR		#Single word string
DataType HTRS		#Translation followed by rotation and scale data
FileVersion 1		#integer
NumSegments 84		#integer
NumFrames 2		#integer
DataFrameRate 30		#integer, data frame rate in this file
EulerRotationOrder ZYX
CalibrationUnits mm
RotationUnits Degrees
GlobalAxisofGravity Y
BoneLengthAxis Y
ScaleFactor 1.00
[SegmentNames&Hierarchy]
#CHILD	PARENT
MASTER GLOBAL
root MASTER
chest root
L_mid_tent01 root
R_mid_tent01 root
spine01 root
Bip01_Neck chest
L_humerus chest
R_humerus chest
weapon_bone chest
Bip01_Head Bip01_Neck
eye_left_bone Bip01_Head
eye_right_bone Bip01_Head
L_forearm L_humerus
L_front_hand L_forearm
L_weapon_bone L_forearm
L_front_hand01_01 L_front_hand
L_front_hand02_01 L_front_hand
L_front_hand03_01 L_front_hand
L_front_hand01_02 L_front_hand01_01
L_front_hand02_02 L_front_hand02_01
L_front_hand03_02 L_front_hand03_01
R_forearm R_humerus
R_front_hand R_forearm
R_weapon_bone R_forearm
R_front_hand01_01 R_front_hand
R_front_hand02_01 R_front_hand
R_front_hand03_01 R_front_hand
R_front_hand01_02 R_front_hand01_01
R_front_hand02_02 R_front_hand02_01
R_front_hand03_02 R_front_hand03_01
null_rope01_connect L_mid_tent01
Rope1_Seg01 null_rope01_connect
Rope1_Seg02 Rope1_Seg01
Rope1_Seg03 Rope1_Seg02
Rope1_Seg04 Rope1_Seg03
Rope1_Seg05 Rope1_Seg04
Rope1_Seg06 Rope1_Seg05
Rope1_Seg07 Rope1_Seg06
Rope1_Seg09 Rope1_Seg07
L_mid_hand01 Rope1_Seg09
L_mid_hand02 Rope1_Seg09
L_mid_hand03 Rope1_Seg09
null_rope02_connect R_mid_tent01
Rope2_Seg01 null_rope02_connect
Rope2_Seg02 Rope2_Seg01
Rope2_Seg03 Rope2_Seg02
Rope2_Seg04 Rope2_Seg03
Rope2_Seg05 Rope2_Seg04
Rope2_Seg06 Rope2_Seg05
Rope2_Seg07 Rope2_Seg06
Rope2_Seg09 Rope2_Seg07
R_mid_hand01 Rope2_Seg09
R_mid_hand02 Rope2_Seg09
R_mid_hand03 Rope2_Seg09
spine02 spine01
spine03 spine02
pelvis spine03
null_rope03_connect pelvis
null_rope04_connect pelvis
Rope3_Seg01 null_rope03_connect
Rope3_Seg02 Rope3_Seg01
Rope3_Seg03 Rope3_Seg02
Rope3_Seg04 Rope3_Seg03
Rope3_Seg05 Rope3_Seg04
Rope3_Seg06 Rope3_Seg05
Rope3_Seg07 Rope3_Seg06
Rope3_Seg08 Rope3_Seg07
Rope3_Seg09 Rope3_Seg08
R_rear_hand01 Rope3_Seg09
R_rear_hand02 Rope3_Seg09
R_rear_hand03 Rope3_Seg09
Rope4_Seg01 null_rope04_connect
Rope4_Seg02 Rope4_Seg01
Rope4_Seg03 Rope4_Seg02
Rope4_Seg04 Rope4_Seg03
Rope4_Seg05 Rope4_Seg04
Rope4_Seg06 Rope4_Seg05
Rope4_Seg07 Rope4_Seg06
Rope4_Seg08 Rope4_Seg07
Rope4_Seg09 Rope4_Seg08
L_rear_hand01 Rope4_Seg09
L_rear_hand02 Rope4_Seg09
L_rear_hand03 Rope4_Seg09
[BasePosition]
#SegmentName Tx, Ty, Tz, Rx, Ry, Rz, BoneLength
MASTER 0.000000 0.000000 0.000000 -90.000000 0.000000 0.000000 10.000000 
root 0.000000 0.000000 0.000000 0.000000 0.000000 0.000000 10.000000 
chest 0.000000 0.000000 0.000000 0.000000 0.000000 0.000000 10.000000 
L_mid_tent01 0.000000 0.000000 0.000000 0.000000 0.000000 0.000000 10.000000 
R_mid_tent01 0.000000 0.000000 0.000000 0.000000 0.000000 0.000000 10.000000 
spine01 0.000000 0.000000 0.000000 0.000000 0.000000 0.000000 10.000000 
Bip01_Neck 0.000000 0.000000 0.000000 0.000000 0.000000 0.000000 10.000000 
L_humerus 0.000000 0.000000 0.000000 0.000000 0.000000 0.000000 10.000000 
R_humerus 0.000000 0.000000 0.000000 0.000000 0.000000 0.000000 10.000000 
weapon_bone 0.000000 0.000000 0.000000 0.000000 0.000000 0.000000 10.000000 
Bip01_Head 0.000000 0.000000 0.000000 0.000000 0.000000 0.000000 10.000000 
eye_left_bone 0.000000 0.000000 0.000000 0.000000 0.000000 0.000000 10.000000 
eye_right_bone 0.000000 0.000000 0.000000 0.000000 0.000000 0.000000 10.000000 
L_forearm 0.000000 0.000000 0.000000 0.000000 0.000000 0.000000 10.000000 
L_front_hand 0.000000 0.000000 0.000000 0.000000 0.000000 0.000000 10.000000 
L_weapon_bone 0.000000 0.000000 0.000000 0.000000 0.000000 0.000000 10.000000 
L_front_hand01_01 0.000000 0.000000 0.000000 0.000000 0.000000 0.000000 10.000000 
L_front_hand02_01 0.000000 0.000000 0.000000 0.000000 0.000000 0.000000 10.000000 
L_front_hand03_01 0.000000 0.000000 0.000000 0.000000 0.000000 0.000000 10.000000 
L_front_hand01_02 0.000000 0.000000 0.000000 0.000000 0.000000 0.000000 10.000000 
L_front_hand02_02 0.000000 0.000000 0.000000 0.000000 0.000000 0.000000 10.000000 
L_front_hand03_02 0.000000 0.000000 0.000000 0.000000 0.000000 0.000000 10.000000 
R_forearm 0.000000 0.000000 0.000000 0.000000 0.000000 0.000000 10.000000 
R_front_hand 0.000000 0.000000 0.000000 0.000000 0.000000 0.000000 10.000000 
R_weapon_bone 0.000000 0.000000 0.000000 0.000000 0.000000 0.000000 10.000000 
R_front_hand01_01 0.000000 0.000000 0.000000 0.000000 0.000000 0.000000 10.000000 
R_front_hand02_01 0.000000 0.000000 0.000000 0.000000 0.000000 0.000000 10.000000 
R_front_hand03_01 0.000000 0.000000 0.000000 0.000000 0.000000 0.000000 10.000000 
R_front_hand01_02 0.000000 0.000000 0.000000 0.000000 0.000000 0.000000 10.000000 
R_front_hand02_02 0.000000 0.000000 0.000000 0.000000 0.000000 0.000000 10.000000 
R_front_hand03_02 0.000000 0.000000 0.000000 0.000000 0.000000 0.000000 10.000000 
null_rope01_connect 0.000000 0.000000 0.000000 0.000000 0.000000 0.000000 10.000000 
Rope1_Seg01 0.000000 0.000000 0.000000 0.000000 0.000000 0.000000 10.000000 
Rope1_Seg02 0.000000 0.000000 0.000000 0.000000 0.000000 0.000000 10.000000 
Rope1_Seg03 0.000000 0.000000 0.000000 0.000000 0.000000 0.000000 10.000000 
Rope1_Seg04 0.000000 0.000000 0.000000 0.000000 0.000000 0.000000 10.000000 
Rope1_Seg05 0.000000 0.000000 0.000000 0.000000 0.000000 0.000000 10.000000 
Rope1_Seg06 0.000000 0.000000 0.000000 0.000000 0.000000 0.000000 10.000000 
Rope1_Seg07 0.000000 0.000000 0.000000 0.000000 0.000000 0.000000 10.000000 
Rope1_Seg09 0.000000 0.000000 0.000000 0.000000 0.000000 0.000000 10.000000 
L_mid_hand01 0.000000 0.000000 0.000000 0.000000 0.000000 0.000000 10.000000 
L_mid_hand02 0.000000 0.000000 0.000000 0.000000 0.000000 0.000000 10.000000 
L_mid_hand03 0.000000 0.000000 0.000000 0.000000 0.000000 0.000000 10.000000 
null_rope02_connect 0.000000 0.000000 0.000000 0.000000 0.000000 0.000000 10.000000 
Rope2_Seg01 0.000000 0.000000 0.000000 0.000000 0.000000 0.000000 10.000000 
Rope2_Seg02 0.000000 0.000000 0.000000 0.000000 0.000000 0.000000 10.000000 
Rope2_Seg03 0.000000 0.000000 0.000000 0.000000 0.000000 0.000000 10.000000 
Rope2_Seg04 0.000000 0.000000 0.000000 0.000000 0.000000 0.000000 10.000000 
Rope2_Seg05 0.000000 0.000000 0.000000 0.000000 0.000000 0.000000 10.000000 
Rope2_Seg06 0.000000 0.000000 0.000000 0.000000 0.000000 0.000000 10.000000 
Rope2_Seg07 0.000000 0.000000 0.000000 0.000000 0.000000 0.000000 10.000000 
Rope2_Seg09 0.000000 0.000000 0.000000 0.000000 0.000000 0.000000 10.000000 
R_mid_hand01 0.000000 0.000000 0.000000 0.000000 0.000000 0.000000 10.000000 
R_mid_hand02 0.000000 0.000000 0.000000 0.000000 0.000000 0.000000 10.000000 
R_mid_hand03 0.000000 0.000000 0.000000 0.000000 0.000000 0.000000 10.000000 
spine02 0.000000 0.000000 0.000000 0.000000 0.000000 0.000000 10.000000 
spine03 0.000000 0.000000 0.000000 0.000000 0.000000 0.000000 10.000000 
pelvis 0.000000 0.000000 0.000000 0.000000 0.000000 0.000000 10.000000 
null_rope03_connect 0.000000 0.000000 0.000000 0.000000 0.000000 0.000000 10.000000 
null_rope04_connect 0.000000 0.000000 0.000000 0.000000 0.000000 0.000000 10.000000 
Rope3_Seg01 0.000000 0.000000 0.000000 0.000000 0.000000 0.000000 10.000000 
Rope3_Seg02 0.000000 0.000000 0.000000 0.000000 0.000000 0.000000 10.000000 
Rope3_Seg03 0.000000 0.000000 0.000000 0.000000 0.000000 0.000000 10.000000 
Rope3_Seg04 0.000000 0.000000 0.000000 0.000000 0.000000 0.000000 10.000000 
Rope3_Seg05 0.000000 0.000000 0.000000 0.000000 0.000000 0.000000 10.000000 
Rope3_Seg06 0.000000 0.000000 0.000000 0.000000 0.000000 0.000000 10.000000 
Rope3_Seg07 0.000000 0.000000 0.000000 0.000000 0.000000 0.000000 10.000000 
Rope3_Seg08 0.000000 0.000000 0.000000 0.000000 0.000000 0.000000 10.000000 
Rope3_Seg09 0.000000 0.000000 0.000000 0.000000 0.000000 0.000000 10.000000 
R_rear_hand01 0.000000 0.000000 0.000000 0.000000 0.000000 0.000000 10.000000 
R_rear_hand02 0.000000 0.000000 0.000000 0.000000 0.000000 0.000000 10.000000 
R_rear_hand03 0.000000 0.000000 0.000000 0.000000 0.000000 0.000000 10.000000 
Rope4_Seg01 0.000000 0.000000 0.000000 0.000000 0.000000 0.000000 10.000000 
Rope4_Seg02 0.000000 0.000000 0.000000 0.000000 0.000000 0.000000 10.000000 
Rope4_Seg03 0.000000 0.000000 0.000000 0.000000 0.000000 0.000000 10.000000 
Rope4_Seg04 0.000000 0.000000 0.000000 0.000000 0.000000 0.000000 10.000000 
Rope4_Seg05 0.000000 0.000000 0.000000 0.000000 0.000000 0.000000 10.000000 
Rope4_Seg06 0.000000 0.000000 0.000000 0.000000 0.000000 0.000000 10.000000 
Rope4_Seg07 0.000000 0.000000 0.000000 0.000000 0.000000 0.000000 10.000000 
Rope4_Seg08 0.000000 0.000000 0.000000 0.000000 0.000000 0.000000 10.000000 
Rope4_Seg09 0.000000 0.000000 0.000000 0.000000 0.000000 0.000000 10.000000 
L_rear_hand01 0.000000 0.000000 0.000000 0.000000 0.000000 0.000000 10.000000 
L_rear_hand02 0.000000 0.000000 0.000000 0.000000 0.000000 0.000000 10.000000 
L_rear_hand03 0.000000 0.000000 0.000000 0.000000 0.000000 0.000000 10.000000 
#Beginning of Data. Separated by tabs
#Fr	Tx	Ty	Tz	Rx	Ry	Rz	SF
[MASTER]
3 332.904694 0.000050 0.000000 0.001700 0.001619 2.786362 332.904694
4 689.177856 0.000104 0.000000 0.001719 0.001599 4.147345 689.177856
[root]
3 -18.284712 -62.822105 1333.356201 -104.239182 -28.139803 -87.018875 1334.960449
4 -20.650024 -62.822105 1178.616699 -108.659294 -29.077682 -85.912521 1180.470337
[chest]
3 -84.512650 -34.090519 0.000000 -27.390402 9.032407 172.645020 91.129311
4 -84.512650 -34.090519 0.000000 -36.176739 13.478043 167.991776 91.129311
[L_mid_tent01]
3 27.320303 22.165604 -250.051590 5.610118 39.094631 84.828041 252.514374
4 27.309900 22.171553 -249.984787 3.862628 36.229202 81.347610 252.447617
[R_mid_tent01]
3 23.228794 24.509907 226.238495 158.532043 -49.776581 89.283951 228.744751
4 23.228794 24.509907 226.238495 160.432037 -47.061241 87.899765 228.744751
[spine01]
3 -0.361383 -0.195265 0.000000 0.810369 0.452559 15.173538 0.410763
4 -0.361383 -0.195265 0.000000 0.772828 0.452047 14.990466 0.410763
[Bip01_Neck]
3 165.484543 71.581718 0.000119 175.896118 1.177290 24.871183 180.302734
4 165.484543 71.581718 0.000119 175.896118 1.177290 24.871183 180.302734
[L_humerus]
3 -13.983130 -135.272980 -120.471481 -171.234024 81.563431 -84.376221 181.680161
4 -13.983130 -135.272980 -120.471481 -166.117096 81.438461 -80.135887 181.680161
[R_humerus]
3 -13.983309 -135.273102 125.287651 -167.282639 -69.368042 -96.424866 184.909012
4 -13.983309 -135.273102 125.287651 -169.567215 -69.448128 -94.984245 184.909012
[weapon_bone]
3 235.964890 -300.705902 0.000000 0.000000 -89.951546 -128.212341 382.234833
4 235.964890 -300.705902 0.000000 0.000000 -89.951546 -128.212341 382.234833
[Bip01_Head]
3 260.218048 110.849541 -10.017914 2.030761 5.834634 -63.676254 283.021912
4 259.112305 112.604500 -16.238194 1.846460 5.818497 -64.150696 282.988739
[eye_left_bone]
3 -24.626970 125.451866 -64.772606 0.000000 -90.000000 -99.840431 143.318359
4 -24.626970 125.451866 -64.772606 0.000000 -90.000000 -99.840431 143.318359
[eye_right_bone]
3 -24.626970 125.451866 64.327362 0.000000 -89.960434 80.159386 143.117676
4 -24.626970 125.451866 64.327362 0.000000 -89.960434 80.159386 143.117676
[L_forearm]
3 322.776093 0.000000 -0.000119 0.000643 0.002257 -58.207199 322.776093
4 322.776093 0.000000 -0.000119 0.000616 0.002265 -59.593025 322.776093
[L_front_hand]
3 241.149185 -0.042021 -3.300071 -178.917038 -1.995711 -19.968737 241.171753
4 241.149185 -0.042021 -3.300071 -179.153839 -2.104036 -13.295674 241.171753
[L_weapon_bone]
3 156.183838 0.000000 0.000000 0.001802 0.001504 10.327425 156.183838
4 156.183838 0.000000 0.000000 0.001928 0.001352 19.914227 156.183838
[L_front_hand01_01]
3 86.095154 20.947098 -0.655860 -0.345630 -0.486632 72.985954 88.609184
4 86.095154 20.947098 -0.655860 -0.358019 -0.483663 74.277168 88.609184
[L_front_hand02_01]
3 86.935165 -11.437475 24.513514 150.809296 -58.778587 -57.192558 91.046425
4 86.935165 -11.437475 24.513514 152.710815 -59.393673 -59.407352 91.046425
[L_front_hand03_01]
3 86.637497 -14.123976 -20.424902 -150.571686 56.997833 -58.742687 90.126129
4 86.637497 -14.123976 -20.424902 -152.345215 57.619305 -60.852303 90.126129
[L_front_hand01_02]
3 71.020905 -0.000179 0.000030 0.000334 -0.002323 -106.379379 71.020905
4 71.020905 -0.000179 0.000030 0.001534 0.001777 -8.378850 71.020905
[L_front_hand02_02]
3 71.020927 -0.000119 0.000060 0.000334 -0.002323 -106.379379 71.020927
4 71.020927 -0.000119 0.000060 0.001534 0.001777 -8.378850 71.020927
[L_front_hand03_02]
3 71.020905 -0.000060 0.000060 0.000334 -0.002323 -106.379379 71.020905
4 71.020905 -0.000060 0.000060 0.001534 0.001777 -8.378850 71.020905
[R_forearm]
3 322.776428 -0.000060 0.000030 0.200619 -0.073133 -71.327278 322.776428
4 322.776428 -0.000060 0.000030 0.200812 -0.072599 -71.631935 322.776428
[R_front_hand]
3 238.847015 -0.006795 2.210259 -1.222059 1.216790 -33.884575 238.857239
4 238.847015 -0.006795 2.210259 -1.021912 1.390247 -25.106562 238.857239
[R_weapon_bone]
3 155.664093 0.002503 -0.000030 0.003147 0.001909 -116.102425 155.664078
4 155.664093 0.002503 -0.000030 0.003052 0.002057 -121.554924 155.664078
[R_front_hand01_01]
3 87.624611 14.231146 22.918642 -151.019943 -58.847031 57.544685 91.683487
4 87.624611 14.231146 22.918642 -154.633499 -59.950619 61.746044 91.683487
[R_front_hand02_01]
3 89.356956 14.367283 -19.491137 151.211227 57.208401 59.740421 92.579636
4 89.356956 14.367283 -19.491137 154.602661 58.302849 63.744389 92.579636
[R_front_hand03_01]
3 87.286232 -22.307278 -0.143439 0.142368 -0.428417 -73.368439 90.091743
4 87.286232 -22.307278 -0.143439 0.162155 -0.423168 -75.767921 90.091743
[R_front_hand01_02]
3 71.020905 0.000060 0.000119 0.002323 -0.000334 106.381386 71.020905
4 71.020905 0.000060 0.000119 0.001777 0.001534 8.377220 71.020905
[R_front_hand02_02]
3 71.020844 -0.000030 -0.000119 0.002323 -0.000334 106.381386 71.020836
4 71.020844 -0.000030 -0.000119 0.001777 0.001534 8.377220 71.020836
[R_front_hand03_02]
3 71.020905 0.000000 0.000030 0.002323 -0.000334 106.381386 71.020905
4 71.020905 0.000000 0.000030 0.001777 0.001534 8.377220 71.020905
[null_rope01_connect]
3 328.732483 0.000000 -0.000238 -144.433624 -40.168785 -176.744751 328.732483
4 328.732483 0.000000 -0.000238 -145.038376 -40.433075 -171.073761 328.732483
[Rope1_Seg01]
3 0.000000 0.000000 0.000000 138.347504 45.913509 176.203217 0.000000
4 0.000000 0.000000 0.000000 137.190277 33.064255 -167.723526 0.000000
[Rope1_Seg02]
3 139.999863 -0.000179 0.000000 -0.915679 -3.769306 6.037097 139.999863
4 139.999863 -0.000179 0.000000 0.409264 -5.513962 5.118329 139.999863
[Rope1_Seg03]
3 139.999924 0.000060 -0.000060 -1.004022 -5.248966 8.174245 139.999924
4 139.999924 0.000060 -0.000060 0.179487 -7.172464 6.738608 139.999924
[Rope1_Seg04]
3 139.999924 -0.000060 -0.000119 -0.693822 -5.777176 8.259201 139.999924
4 139.999924 -0.000060 -0.000119 1.060828 -8.833032 5.184810 139.999924
[Rope1_Seg05]
3 139.999832 0.000119 -0.000060 -1.845988 -11.773358 19.255054 139.999832
4 139.999832 0.000119 -0.000060 -1.828648 -10.173159 15.184492 139.999832
[Rope1_Seg06]
3 139.999954 0.000119 -0.000060 0.238569 -8.567019 14.514524 139.999954
4 139.999954 0.000119 -0.000060 -0.310796 -5.945303 14.782019 139.999954
[Rope1_Seg07]
3 139.999985 0.000060 0.000000 0.816726 -3.700032 6.366970 139.999985
4 139.999985 0.000060 0.000000 0.395952 -3.162022 6.535018 139.999985
[Rope1_Seg09]
3 121.602913 0.000119 -0.000089 -89.793175 -1.359789 0.847147 121.602913
4 121.602913 0.000119 -0.000089 -89.793175 -1.359789 0.847147 121.602913
[L_mid_hand01]
3 103.859421 1.038730 8.195221 111.431305 -47.263851 -16.612017 104.187431
4 103.859421 1.038730 8.195221 111.431305 -47.263851 -16.612017 104.187431
[L_mid_hand02]
3 105.572853 -4.139662 -10.864139 -150.709808 35.166882 -45.161087 106.211075
4 105.572853 -4.139662 -10.864139 -150.709808 35.166882 -45.161087 106.211075
[L_mid_hand03]
3 104.641464 17.579376 -3.913581 -12.649597 13.975001 50.985863 106.179977
4 104.641464 17.579376 -3.913581 -12.649596 13.974999 50.985855 106.179977
[null_rope02_connect]
3 328.732849 0.000179 -0.000119 -114.278297 43.918388 30.980421 328.732849
4 328.732849 0.000179 -0.000119 -107.878166 47.795658 37.173817 328.732849
[Rope2_Seg01]
3 -0.000073 0.000134 0.000153 -58.623604 29.806803 26.317247 0.000216
4 -0.000072 0.000134 0.000153 -50.814930 11.761554 3.684625 0.000215
[Rope2_Seg02]
3 139.999741 -0.000060 -0.000119 -3.457196 -13.247556 12.946001 139.999756
4 139.999741 -0.000060 -0.000119 -14.891219 -13.262694 29.326176 139.999756
[Rope2_Seg03]
3 140.000107 0.000030 0.000000 -1.104092 -8.189822 10.134754 140.000107
4 140.000107 0.000030 0.000000 -3.721321 -11.598524 18.449490 140.000107
[Rope2_Seg04]
3 139.999802 0.000000 -0.000060 -2.857144 -26.198879 15.432476 139.999802
4 139.999802 0.000000 -0.000060 -2.479221 -25.390617 20.739553 139.999802
[Rope2_Seg05]
3 139.999985 -0.000060 0.000119 -0.259337 -14.041582 7.258879 139.999985
4 139.999985 -0.000060 0.000119 2.835476 -15.400540 12.073280 139.999985
[Rope2_Seg06]
3 139.999893 -0.000030 -0.000119 0.525393 -5.436811 3.051856 139.999893
4 139.999893 -0.000030 -0.000119 3.581790 -5.606788 5.352098 139.999893
[Rope2_Seg07]
3 139.999893 0.000060 -0.000060 0.457530 -3.117132 1.795152 139.999893
4 139.999893 0.000060 -0.000060 2.997814 -2.948337 3.211092 139.999893
[Rope2_Seg09]
3 121.338966 0.000089 -0.000060 33.793236 -1.359788 -0.847141 121.338966
4 121.338966 0.000089 -0.000060 33.793236 -1.359788 -0.847141 121.338966
[R_mid_hand01]
3 104.680779 11.144459 -10.335981 -34.269650 35.095989 42.885235 105.778534
4 104.680779 11.144459 -10.335981 -34.269650 35.095989 42.885235 105.778534
[R_mid_hand02]
3 104.070427 2.443552 8.231699 68.449066 -47.537163 16.779839 104.424065
4 104.070427 2.443552 8.231699 68.449066 -47.537163 16.779839 104.424065
[R_mid_hand03]
3 106.028137 -11.221827 -5.996406 -171.106766 13.128626 -52.726494 106.788818
4 106.028137 -11.221827 -5.996406 -171.106766 13.128626 -52.726494 106.788818
[spine02]
3 129.756927 0.001550 0.000119 -0.245655 -4.136406 -4.395092 129.756927
4 129.756927 0.001550 0.000119 -0.242545 -4.161255 -4.454617 129.756927
[spine03]
3 78.629501 0.084518 -4.745435 0.509876 4.091187 -3.652824 78.772614
4 78.637337 0.083138 -4.668751 0.603577 3.930426 -2.798655 78.775856
[pelvis]
3 169.435242 0.051022 0.000000 -55.065281 -4.154349 -3.380506 169.435257
4 169.435242 0.051022 0.000000 -98.636833 -6.949345 -0.725423 169.435257
[null_rope03_connect]
3 -1.257226 -2.466202 137.391083 -159.585190 -24.041616 -81.400444 137.418976
4 -1.257226 -2.466202 137.391083 -154.154327 22.466408 -77.210548 137.418976
[null_rope04_connect]
3 -1.259640 -2.480268 -137.844437 -159.585190 -24.041616 -81.400444 137.872513
4 -1.259640 -2.480268 -137.844437 -154.154327 22.466408 -77.210548 137.872513
[Rope3_Seg01]
3 0.000000 0.000000 0.000000 -132.195648 -7.248624 -58.272224 0.000000
4 0.000000 0.000000 0.000000 -130.317978 7.700747 -74.296593 0.000000
[Rope3_Seg02]
3 139.999924 -0.000119 0.000060 24.813358 -37.653229 -10.833754 139.999924
4 139.999924 -0.000119 0.000060 -6.767925 -27.613445 25.268158 139.999924
[Rope3_Seg03]
3 139.999924 -0.000119 0.000119 57.951977 -56.229000 6.571117 139.999924
4 139.999924 -0.000119 0.000119 -19.246719 -42.109486 40.270977 139.999924
[Rope3_Seg04]
3 139.999924 0.000119 0.000000 9.605688 -3.430528 37.468868 139.999924
4 139.999924 0.000119 0.000000 -12.408510 -22.288799 31.880424 139.999924
[Rope3_Seg05]
3 139.999924 -0.000238 0.000060 0.836546 2.115878 15.128389 139.999924
4 139.999924 -0.000238 0.000060 -4.469214 -8.875344 10.399401 139.999924
[Rope3_Seg06]
3 139.999893 -0.000119 -0.000060 0.187719 0.488026 5.321030 139.999893
4 139.999893 -0.000119 -0.000060 -1.272154 -3.663482 3.298914 139.999893
[Rope3_Seg07]
3 139.999771 0.000060 -0.000119 0.267232 0.301036 3.158125 139.999771
4 139.999771 0.000060 -0.000119 -0.505742 -2.230737 1.921013 139.999771
[Rope3_Seg08]
3 139.999985 -0.000060 0.000000 0.360634 0.178946 1.817376 139.999985
4 139.999985 -0.000060 0.000000 -0.050382 -1.298658 1.100258 139.999985
[Rope3_Seg09]
3 90.185997 -0.000179 -0.000060 89.793228 -1.359877 -0.847183 90.185997
4 90.185997 -0.000179 -0.000060 89.793228 -1.359877 -0.847183 90.185997
[R_rear_hand01]
3 103.366196 -6.073594 -10.757982 -166.970291 21.129854 -46.704182 104.101845
4 103.366196 -6.073594 -10.757982 -166.970291 21.129850 -46.704182 104.101845
[R_rear_hand02]
3 100.509819 12.039542 -7.992327 -28.148869 27.804199 44.102722 101.543350
4 100.509819 12.039542 -7.992327 -28.148869 27.804199 44.102722 101.543350
[R_rear_hand03]
3 101.539970 5.215704 5.435467 81.628395 -47.127728 10.016968 101.819031
4 101.539970 5.215704 5.435467 81.628380 -47.127724 10.016966 101.819031
[Rope4_Seg01]
3 -0.000018 -0.000070 -0.000153 50.338898 -35.980843 -103.607849 0.000169
4 -0.000018 -0.000067 -0.000153 32.749725 -47.492268 -76.213448 0.000168
[Rope4_Seg02]
3 139.999985 0.000060 0.000119 3.930908 -21.858759 19.440893 139.999985
4 139.999985 0.000060 0.000119 -3.082370 -4.766764 19.484230 139.999985
[Rope4_Seg03]
3 139.999924 0.000000 -0.000238 8.449936 -31.130127 48.279331 139.999924
4 139.999924 0.000000 -0.000238 -13.801635 -10.075412 43.562721 139.999924
[Rope4_Seg04]
3 139.999985 0.000000 0.000119 6.022002 -6.662524 20.754498 139.999985
4 139.999985 0.000000 0.000119 -11.322078 -10.441876 28.761585 139.999985
[Rope4_Seg05]
3 139.999802 -0.000060 -0.000119 4.107278 -9.588854 14.582944 139.999802
4 139.999802 -0.000060 -0.000119 -3.879267 -10.783704 9.408705 139.999802
[Rope4_Seg06]
3 139.999924 0.000000 0.000060 5.145177 -11.271142 17.370369 139.999924
4 139.999924 0.000000 0.000060 -1.968367 -15.981315 7.110088 139.999924
[Rope4_Seg07]
3 139.999802 0.000000 0.000000 3.290470 -4.004499 10.078747 139.999802
4 139.999802 0.000000 0.000000 0.464682 -11.990053 6.017694 139.999802
[Rope4_Seg08]
3 139.999924 0.000000 0.000119 0.242648 -1.832705 5.673535 139.999924
4 139.999924 0.000000 0.000119 -0.457463 -6.276078 3.672880 139.999924
[Rope4_Seg09]
3 90.185791 0.000060 0.000060 -135.617828 2.228885 0.850567 90.185791
4 90.185791 0.000060 0.000060 -135.617828 2.228885 0.850567 90.185791
[L_rear_hand01]
3 101.696655 -8.392275 -7.654577 -27.705481 -28.251705 134.947800 102.329041
4 101.696655 -8.392275 -7.654577 -27.705481 -28.251705 134.947800 102.329041
[L_rear_hand02]
3 102.726799 -1.568258 5.773216 81.477219 48.065086 169.775513 102.900848
4 102.726799 -1.568258 5.773216 81.477219 48.065086 169.775513 102.900848
[L_rear_hand03]
3 104.552910 9.721220 -10.420293 -167.330078 -21.338425 -132.303940 105.519653
4 104.552910 9.721220 -10.420293 -167.330078 -21.338425 -132.303940 105.519653
